<svg width="57" height="43" viewBox="0 0 57 43" fill="none" xmlns="http://www.w3.org/2000/svg">
<g id="Badge" filter="url(#filter0_dd_4_216)">
<rect x="8.729" y="4.99994" width="39.9568" height="25.7414" rx="4.6104" fill="white"/>
<rect x="8.63295" y="4.90389" width="40.1489" height="25.9335" rx="4.70645" stroke="#D6DCE5" stroke-width="0.1921"/>
<g id="&#239;&#163;&#191; Pay">
<path d="M21.6528 14.4989C21.9194 14.1654 22.1003 13.7177 22.0526 13.2603C21.6624 13.2797 21.1862 13.5177 20.9105 13.8514C20.6629 14.1371 20.4438 14.6036 20.5009 15.0419C20.939 15.0799 21.3766 14.8229 21.6528 14.4989Z" fill="#000008"/>
<path d="M22.0476 15.1275C21.4115 15.0896 20.8706 15.4885 20.5668 15.4885C20.2628 15.4885 19.7976 15.1466 19.2944 15.1558C18.6395 15.1654 18.0319 15.5357 17.6995 16.1246C17.016 17.3028 17.5191 19.0504 18.1839 20.0099C18.5067 20.4847 18.8957 21.0074 19.4083 20.9886C19.8926 20.9696 20.0825 20.675 20.6712 20.675C21.2595 20.675 21.4305 20.9886 21.9432 20.9791C22.4749 20.9696 22.8073 20.5041 23.1301 20.0289C23.5004 19.4878 23.652 18.9653 23.6615 18.9366C23.652 18.9271 22.6363 18.5374 22.6269 17.3691C22.6173 16.3908 23.4243 15.9255 23.4623 15.8966C23.0066 15.2226 22.2945 15.1466 22.0476 15.1275Z" fill="#000008"/>
<path d="M27.5868 13.8035C28.9694 13.8035 29.9323 14.7566 29.9323 16.1443C29.9323 17.5369 28.9496 18.4949 27.5521 18.4949H26.0212V20.9294H24.9151V13.8035L27.5868 13.8035ZM26.0212 17.5665H27.2903C28.2533 17.5665 28.8014 17.048 28.8014 16.1492C28.8014 15.2505 28.2533 14.7369 27.2953 14.7369H26.0212V17.5665Z" fill="#000008"/>
<path d="M30.2212 19.4529C30.2212 18.5442 30.9175 17.9862 32.1522 17.9171L33.5743 17.8332V17.4332C33.5743 16.8554 33.1841 16.5097 32.5324 16.5097C31.915 16.5097 31.5298 16.806 31.4361 17.2702H30.4287C30.4879 16.3319 31.2879 15.6406 32.5719 15.6406C33.8311 15.6406 34.636 16.3072 34.636 17.3492V20.9294H33.6137V20.0751H33.5891C33.288 20.6529 32.6311 21.0183 31.9497 21.0183C30.9324 21.0183 30.2212 20.3862 30.2212 19.4529ZM33.5743 18.9838V18.5739L32.2952 18.6529C31.6582 18.6974 31.2978 18.9789 31.2978 19.4233C31.2978 19.8776 31.6731 20.1739 32.2459 20.1739C32.9915 20.1739 33.5743 19.6603 33.5743 18.9838Z" fill="#000008"/>
<path d="M35.6011 22.8406V21.9763C35.6799 21.9961 35.8577 21.9961 35.9466 21.9961C36.4404 21.9961 36.7071 21.7887 36.87 21.2554C36.87 21.2455 36.9639 20.9393 36.9639 20.9344L35.0875 15.7344H36.2429L37.5566 19.9616H37.5762L38.8899 15.7344H40.0158L38.07 21.201C37.6257 22.4603 37.1121 22.8652 36.0356 22.8652C35.9466 22.8652 35.6799 22.8553 35.6011 22.8406Z" fill="#000008"/>
</g>
</g>
<defs>
<filter id="filter0_dd_4_216" x="0.853109" y="0.965861" width="55.7088" height="41.4936" filterUnits="userSpaceOnUse" color-interpolation-filters="sRGB">
<feFlood flood-opacity="0" result="BackgroundImageFix"/>
<feColorMatrix in="SourceAlpha" type="matrix" values="0 0 0 0 0 0 0 0 0 0 0 0 0 0 0 0 0 0 127 0" result="hardAlpha"/>
<feOffset dy="0.3842"/>
<feGaussianBlur stdDeviation="1.921"/>
<feColorMatrix type="matrix" values="0 0 0 0 0.717647 0 0 0 0 0.717647 0 0 0 0 0.717647 0 0 0 0.08 0"/>
<feBlend mode="normal" in2="BackgroundImageFix" result="effect1_dropShadow_4_216"/>
<feColorMatrix in="SourceAlpha" type="matrix" values="0 0 0 0 0 0 0 0 0 0 0 0 0 0 0 0 0 0 127 0" result="hardAlpha"/>
<feOffset dy="3.842"/>
<feGaussianBlur stdDeviation="3.842"/>
<feColorMatrix type="matrix" values="0 0 0 0 0.717647 0 0 0 0 0.717647 0 0 0 0 0.717647 0 0 0 0.08 0"/>
<feBlend mode="normal" in2="effect1_dropShadow_4_216" result="effect2_dropShadow_4_216"/>
<feBlend mode="normal" in="SourceGraphic" in2="effect2_dropShadow_4_216" result="shape"/>
</filter>
</defs>
</svg>
