<svg width="699" height="699" viewBox="0 0 699 699" fill="none" xmlns="http://www.w3.org/2000/svg">
<g clip-path="url(#clip0_66_19)">
<path d="M2.86154 423L-62 488.035V623.681L2.86154 685L62 623.681V488.035L-4.76923 423" stroke="black" stroke-opacity="0.2" stroke-width="10"/>
<path d="M55.6258 408.043L33.0219 495.602L102.773 612.438L190.351 633.712L209.92 552.137L140.169 435.301L49.0322 411.754" stroke="black" stroke-opacity="0.2" stroke-width="10"/>
<path d="M77.6098 365.709L114.585 448.531L243.184 499.982L325.998 465.087L290.368 388.806L161.77 337.355L74.7061 372.551" stroke="black" stroke-opacity="0.2" stroke-width="10"/>
<path d="M-213.177 612.174L-121.013 600.308L-34.8524 494.295L-46.758 407.409L-132.075 419.808L-218.235 525.821L-207.194 616.758" stroke="black" stroke-opacity="0.2" stroke-width="10"/>
<path d="M-175.442 61.7356L-202.012 148.239L-137.651 267.955L-51.1281 292.968L-27.8619 212.313L-92.223 92.5971L-182.198 65.1597" stroke="black" stroke-opacity="0.2" stroke-width="10"/>
<path d="M7.20025 13.2559L-57.2824 78.2832L-56.6616 213.326L8.39936 274.092L67.1831 212.789L66.5623 77.7465L-0.420965 13.2889" stroke="black" stroke-opacity="0.2" stroke-width="10"/>
<path d="M53.3148 286.319L143.706 265.201L218.029 151.054L196.871 65.8437L113.348 86.8001L39.0242 200.947L59.7567 290.273" stroke="black" stroke-opacity="0.2" stroke-width="10"/>
<path d="M67.1399 309.98L140.637 365.262L278.857 350.195L334.113 280.88L265.041 230.701L126.82 245.767L67.9902 317.334" stroke="black" stroke-opacity="0.2" stroke-width="10"/>
</g>
<defs>
<clipPath id="clip0_66_19">
<rect width="699" height="699" fill="white"/>
</clipPath>
</defs>
</svg>
