<svg width="56" height="43" viewBox="0 0 56 43" fill="none" xmlns="http://www.w3.org/2000/svg">
<g id="Badge" filter="url(#filter0_dd_4_218)">
<rect x="7.97168" y="4.99994" width="39.9568" height="25.7414" rx="4.6104" fill="white"/>
<rect x="7.87563" y="4.90389" width="40.1489" height="25.9335" rx="4.70645" stroke="#D6DCE5" stroke-width="0.1921"/>
<g id="G Pay">
<path d="M27.0816 20.9557H26.1829V13.9626H28.5654C29.1692 13.9626 29.6841 14.1639 30.1054 14.5664C30.536 14.969 30.7513 15.4604 30.7513 16.0409C30.7513 16.6353 30.536 17.1268 30.1054 17.5247C29.6888 17.9225 29.1739 18.1191 28.5654 18.1191H27.0816V20.9557ZM27.0816 14.8239V17.2625H28.5841C28.9399 17.2625 29.2394 17.1408 29.4735 16.9021C29.7122 16.6634 29.8339 16.3732 29.8339 16.0455C29.8339 15.7226 29.7122 15.437 29.4735 15.1983C29.2394 14.9502 28.9445 14.8285 28.5841 14.8285H27.0816V14.8239Z" fill="#3C4043"/>
<path d="M33.101 16.0128C33.7656 16.0128 34.2899 16.1906 34.6737 16.5464C35.0575 16.9021 35.2494 17.3889 35.2494 18.0068V20.9557H34.3928V20.291H34.3554C33.9856 20.8387 33.4895 21.1101 32.8716 21.1101C32.3427 21.1101 31.9027 20.9557 31.5469 20.6421C31.1912 20.3285 31.0133 19.9399 31.0133 19.4719C31.0133 18.9757 31.2006 18.5825 31.575 18.2923C31.9495 17.9974 32.4503 17.8523 33.0729 17.8523C33.6065 17.8523 34.0465 17.9506 34.3882 18.1472V17.9413C34.3882 17.6276 34.2665 17.3655 34.0184 17.1455C33.7703 16.9255 33.4801 16.8179 33.1478 16.8179C32.6469 16.8179 32.2491 17.0285 31.9588 17.4545L31.1678 16.9583C31.6031 16.3264 32.2491 16.0128 33.101 16.0128ZM31.9401 19.4859C31.9401 19.72 32.0384 19.9165 32.2397 20.071C32.4363 20.2255 32.6703 20.305 32.9371 20.305C33.3163 20.305 33.6533 20.1646 33.9482 19.8838C34.2431 19.6029 34.3928 19.2753 34.3928 18.8961C34.112 18.6761 33.7235 18.5638 33.2227 18.5638C32.8576 18.5638 32.5533 18.6527 32.3099 18.8259C32.0618 19.0085 31.9401 19.2285 31.9401 19.4859Z" fill="#3C4043"/>
<path d="M40.1362 16.1673L37.1405 23.0574H36.2137L37.3277 20.6468L35.3524 16.1673H36.3307L37.7537 19.603H37.7724L39.1579 16.1673H40.1362Z" fill="#3C4043"/>
<path d="M23.5068 17.5528C23.5068 17.2597 23.4806 16.9794 23.4319 16.7097H19.6649V18.2544L21.8344 18.2549C21.7464 18.7688 21.4632 19.2069 21.0293 19.499V20.5012H22.3207C23.0748 19.8033 23.5068 18.7716 23.5068 17.5528Z" fill="#4285F4"/>
<path d="M21.0298 19.4991C20.6703 19.7415 20.2074 19.8834 19.6658 19.8834C18.6197 19.8834 17.7322 19.1784 17.4144 18.2282H16.0822V19.2618C16.7422 20.5714 18.0987 21.4701 19.6658 21.4701C20.7489 21.4701 21.6589 21.1139 22.3212 20.5008L21.0298 19.4991Z" fill="#34A853"/>
<path d="M17.2889 17.4615C17.2889 17.1947 17.3333 16.9368 17.4143 16.6943V15.6608H16.0822C15.8093 16.2023 15.6558 16.8137 15.6558 17.4615C15.6558 18.1093 15.8098 18.7206 16.0822 19.2622L17.4143 18.2287C17.3333 17.9862 17.2889 17.7283 17.2889 17.4615Z" fill="#FABB05"/>
<path d="M19.6658 15.0392C20.257 15.0392 20.7864 15.2428 21.2044 15.6407L22.3488 14.4971C21.6537 13.8498 20.7475 13.4524 19.6658 13.4524C18.0992 13.4524 16.7422 14.3511 16.0822 15.6608L17.4143 16.6943C17.7321 15.7441 18.6197 15.0392 19.6658 15.0392Z" fill="#E94235"/>
</g>
</g>
<defs>
<filter id="filter0_dd_4_218" x="0.0957851" y="0.965861" width="55.7088" height="41.4936" filterUnits="userSpaceOnUse" color-interpolation-filters="sRGB">
<feFlood flood-opacity="0" result="BackgroundImageFix"/>
<feColorMatrix in="SourceAlpha" type="matrix" values="0 0 0 0 0 0 0 0 0 0 0 0 0 0 0 0 0 0 127 0" result="hardAlpha"/>
<feOffset dy="0.3842"/>
<feGaussianBlur stdDeviation="1.921"/>
<feColorMatrix type="matrix" values="0 0 0 0 0.717647 0 0 0 0 0.717647 0 0 0 0 0.717647 0 0 0 0.08 0"/>
<feBlend mode="normal" in2="BackgroundImageFix" result="effect1_dropShadow_4_218"/>
<feColorMatrix in="SourceAlpha" type="matrix" values="0 0 0 0 0 0 0 0 0 0 0 0 0 0 0 0 0 0 127 0" result="hardAlpha"/>
<feOffset dy="3.842"/>
<feGaussianBlur stdDeviation="3.842"/>
<feColorMatrix type="matrix" values="0 0 0 0 0.717647 0 0 0 0 0.717647 0 0 0 0 0.717647 0 0 0 0.08 0"/>
<feBlend mode="normal" in2="effect1_dropShadow_4_218" result="effect2_dropShadow_4_218"/>
<feBlend mode="normal" in="SourceGraphic" in2="effect2_dropShadow_4_218" result="shape"/>
</filter>
</defs>
</svg>
