<svg width="57" height="43" viewBox="0 0 57 43" fill="none" xmlns="http://www.w3.org/2000/svg">
<g id="Badge" filter="url(#filter0_dd_4_214)">
<rect x="8.48584" y="4.99994" width="39.9568" height="25.7414" rx="4.6104" fill="white"/>
<rect x="8.38979" y="4.90389" width="40.1489" height="25.9335" rx="4.70645" stroke="#D6DCE5" stroke-width="0.1921"/>
<g id="Paypal">
<path fill-rule="evenodd" clip-rule="evenodd" d="M17.2265 14.1254H14.9228C14.7652 14.1254 14.6311 14.24 14.6065 14.3955L13.6748 20.3021C13.6563 20.4187 13.7465 20.5238 13.8648 20.5238H14.9646C15.1222 20.5238 15.2563 20.4092 15.2809 20.2533L15.5322 18.6603C15.5564 18.5042 15.6908 18.3898 15.8481 18.3898H16.5774C18.0949 18.3898 18.9706 17.6556 19.1995 16.2006C19.3025 15.564 19.2038 15.0639 18.9056 14.7135C18.5783 14.329 17.9975 14.1254 17.2265 14.1254ZM17.4922 16.2827C17.3663 17.1093 16.7347 17.1093 16.124 17.1093H15.7764L16.0202 15.5656C16.0347 15.4724 16.1156 15.4036 16.2099 15.4036H16.3692C16.7852 15.4036 17.1777 15.4036 17.3805 15.6407C17.5013 15.7822 17.5384 15.9923 17.4922 16.2827ZM24.1127 16.2562H23.0095C22.9155 16.2562 22.8343 16.325 22.8198 16.4183L22.771 16.7268L22.6938 16.615C22.455 16.2684 21.9225 16.1526 21.391 16.1526C20.1718 16.1526 19.1307 17.0757 18.9279 18.3708C18.8225 19.0167 18.9723 19.6344 19.3388 20.0652C19.675 20.4613 20.1561 20.6263 20.7283 20.6263C21.7105 20.6263 22.2554 19.9948 22.2554 19.9948L22.2061 20.3013C22.1875 20.4185 22.2778 20.5236 22.3953 20.5236H23.3891C23.5471 20.5236 23.6804 20.409 23.7054 20.2532L24.3016 16.4779C24.3205 16.3617 24.2305 16.2562 24.1127 16.2562ZM22.5749 18.4031C22.4684 19.0332 21.9682 19.4562 21.3304 19.4562C21.01 19.4562 20.7539 19.3535 20.5896 19.1589C20.4266 18.9656 20.3645 18.6903 20.4164 18.3839C20.5159 17.7591 21.0245 17.3223 21.6527 17.3223C21.9659 17.3223 22.2206 17.4263 22.3883 17.6227C22.5564 17.8211 22.6231 18.0979 22.5749 18.4031ZM28.8794 16.2561H29.988C30.1433 16.2561 30.2338 16.4302 30.1456 16.5575L26.4585 21.879C26.3988 21.9652 26.3005 22.0165 26.1954 22.0165H25.0882C24.9323 22.0165 24.8413 21.841 24.9315 21.7133L26.0796 20.0929L24.8586 16.51C24.8163 16.3854 24.9083 16.2561 25.0408 16.2561H26.1301C26.2716 16.2561 26.3965 16.349 26.4373 16.4844L27.0853 18.6484L28.6144 16.3965C28.6742 16.3086 28.7737 16.2561 28.8794 16.2561Z" fill="#253B80"/>
<path fill-rule="evenodd" clip-rule="evenodd" d="M40.8992 20.3016L41.8447 14.287C41.8591 14.1936 41.9401 14.1249 42.034 14.1246H43.0984C43.2159 14.1246 43.3062 14.2299 43.2876 14.3465L42.3553 20.2528C42.331 20.4087 42.1969 20.5232 42.039 20.5232H41.0885C40.9709 20.5232 40.8807 20.4182 40.8992 20.3016ZM33.6587 14.1249H31.3546C31.1973 14.1249 31.0633 14.2394 31.0386 14.395L30.1069 20.3016C30.0884 20.4182 30.1786 20.5232 30.2963 20.5232H31.4785C31.5884 20.5232 31.6824 20.4431 31.6996 20.334L31.9639 18.6597C31.9883 18.5037 32.1226 18.3893 32.2799 18.3893H33.0088C34.5266 18.3893 35.4022 17.655 35.6312 16.2C35.7346 15.5635 35.6353 15.0633 35.3372 14.713C35.01 14.3284 34.4297 14.1249 33.6587 14.1249ZM33.9245 16.2822C33.7988 17.1087 33.1672 17.1087 32.5561 17.1087H32.2088L32.4531 15.5651C32.4676 15.4719 32.5477 15.4031 32.6423 15.4031H32.8016C33.2174 15.4031 33.6102 15.4031 33.8129 15.6402C33.9338 15.7817 33.9706 15.9918 33.9245 16.2822ZM40.5443 16.2557H39.4419C39.3471 16.2557 39.2667 16.3244 39.2525 16.4178L39.2037 16.7262L39.1262 16.6145C38.8874 16.2678 38.3552 16.152 37.8237 16.152C36.6045 16.152 35.5637 17.0752 35.3609 18.3703C35.2558 19.0162 35.405 19.6339 35.7715 20.0647C36.1084 20.4607 36.5888 20.6258 37.161 20.6258C38.1432 20.6258 38.6879 19.9942 38.6879 19.9942L38.6388 20.3008C38.6202 20.418 38.7105 20.5231 38.8288 20.5231H39.8221C39.9794 20.5231 40.1134 20.4085 40.1381 20.2526L40.7346 16.4773C40.7529 16.3612 40.6626 16.2557 40.5443 16.2557ZM39.0067 18.4026C38.9008 19.0327 38.4 19.4557 37.762 19.4557C37.4422 19.4557 37.1857 19.353 37.0212 19.1583C36.8582 18.9651 36.7969 18.6898 36.8482 18.3834C36.9481 17.7585 37.4561 17.3218 38.0843 17.3218C38.3976 17.3218 38.6522 17.4258 38.8201 17.6221C38.9887 17.8206 39.0555 18.0974 39.0067 18.4026Z" fill="#179BD7"/>
</g>
</g>
<defs>
<filter id="filter0_dd_4_214" x="0.609945" y="0.965861" width="55.7088" height="41.4936" filterUnits="userSpaceOnUse" color-interpolation-filters="sRGB">
<feFlood flood-opacity="0" result="BackgroundImageFix"/>
<feColorMatrix in="SourceAlpha" type="matrix" values="0 0 0 0 0 0 0 0 0 0 0 0 0 0 0 0 0 0 127 0" result="hardAlpha"/>
<feOffset dy="0.3842"/>
<feGaussianBlur stdDeviation="1.921"/>
<feColorMatrix type="matrix" values="0 0 0 0 0.717647 0 0 0 0 0.717647 0 0 0 0 0.717647 0 0 0 0.08 0"/>
<feBlend mode="normal" in2="BackgroundImageFix" result="effect1_dropShadow_4_214"/>
<feColorMatrix in="SourceAlpha" type="matrix" values="0 0 0 0 0 0 0 0 0 0 0 0 0 0 0 0 0 0 127 0" result="hardAlpha"/>
<feOffset dy="3.842"/>
<feGaussianBlur stdDeviation="3.842"/>
<feColorMatrix type="matrix" values="0 0 0 0 0.717647 0 0 0 0 0.717647 0 0 0 0 0.717647 0 0 0 0.08 0"/>
<feBlend mode="normal" in2="effect1_dropShadow_4_214" result="effect2_dropShadow_4_214"/>
<feBlend mode="normal" in="SourceGraphic" in2="effect2_dropShadow_4_214" result="shape"/>
</filter>
</defs>
</svg>
